# xmcd CD database file
#
# Track frame offsets:
#	150
#	21224
#	34308
#	62831
#	78046
#	92277
#	106016
#	122457
#	136074
#	151719
#	163806
#	175922
#	188510
#	212264
#	230712
#	240968
#
# Disc length: 3818 seconds
#
# Revision: 0
# Processed by: cddbd v1.5.1PL2 Copyright (c) Steve Scherf et al.
# Submitted via: CDex 1.51
#
DISCID=b10ee810
DTITLE=Various Artist - Jazz Groups CD3
DYEAR=1900
DGENRE=Jazz
TTITLE0=Milt Jackson - Cant help lovin that man
TTITLE1=Red Noryo - I cant believe that youre in love with me
TTITLE2=Charlie Mingus - Tea for two
TTITLE3=Stephanie Grapelli - As time goes by
TTITLE4=Charlie Parker - Now's the time
TTITLE5=Charlie Parker - Bird gets the worm
TTITLE6=Milt Jackson - Love me pretty baby
TTITLE7=Slam Stewaert - Dark eyes
TTITLE8="MJQ" - Softly as in a morning sunrise
TTITLE9=Art Pepper - These foolish things
TTITLE10=Shelley Manne - Cookie
TTITLE11="MJQ" - Bluesology
TTITLE12=The Adderley Brothers - Porky
TTITLE13=Red Noryo - Prelude to a kiss
TTITLE14=Stephanie Grapelli - UZA
TTITLE15=The Adderley Brothers - Spontaneous combustion
EXTD=
EXTT0=
EXTT1=
EXTT2=
EXTT3=
EXTT4=
EXTT5=
EXTT6=
EXTT7=
EXTT8=
EXTT9=
EXTT10=
EXTT11=
EXTT12=
EXTT13=
EXTT14=
EXTT15=
PLAYORDER=
